# xmcd
#
# Track frame offsets: 
#        225
#        17631
#        34973
#        48266
#        66010
#        86434
#        114002
#        127334
#        148223
#        156112
#        171162
#        192151
#        201938
#        213724
#        229871
#        243514
#        255260
#        268470
#        283740
#        298316
#        309659
#        320718
#
# Disc length: 4439 seconds
#
# Revision: 1
# Processed by: cddbd v1.5.2PL0 Copyright (c) Steve Scherf et al.
# Submitted via: ExactAudioCopy v0.99pb5
#
DISCID=5b115416
DTITLE=Машина времени - Легенды Русского Рока часть 2 cd 1
DYEAR=1998
DGENRE=Rock
TTITLE0=Первый шаг
TTITLE1=Если бы мы были взрослей
TTITLE2=Рыбка в банке
TTITLE3=Морской закон
TTITLE4=Музыка под снегом
TTITLE5=Хрустальный город
TTITLE6=Право
TTITLE7=Маски
TTITLE8=День гнева
TTITLE9=Будет день...
TTITLE10=Дай мне ответ
TTITLE11=В Никитском ботаническом саду
TTITLE12=Ах. что за луна
TTITLE13=Через 20 лет
TTITLE14=Вот, что странно
TTITLE15=Новый день придет
TTITLE16=Странный музей
TTITLE17=Скажем прямо
TTITLE18=Где б найти подругу жизни
TTITLE19=Звездная сирень
TTITLE20=Про собственное лицо
TTITLE21=Про новый дом
EXTD=
EXTT0=
EXTT1=
EXTT2=
EXTT3=
EXTT4=
EXTT5=
EXTT6=
EXTT7=
EXTT8=
EXTT9=
EXTT10=
EXTT11=
EXTT12=
EXTT13=
EXTT14=
EXTT15=
EXTT16=
EXTT17=
EXTT18=
EXTT19=
EXTT20=
EXTT21=
PLAYORDER=
